# xmcd
# Track frame offsets:
# 150
# 14407
# 25780
# 39882
# 57832
# 72202
# 86492
# 99607
# 110990
# 125502
#
# Disc length: 1924 seconds
# Revision: 0
# Processed by: cddbd v1.4PL0 Copyright (c) Steve Scherf et al.
# Submitted via: VisiTrax 2.9.5.180 - For more info visit www.synapsa.com
#
DISCID=7f07820a
DTITLE=Johs Bradshaw - Cryin' on your shoulder
DYEAR=1997
DGENRE=
TTITLE0=He's got a way with women
TTITLE1=If I was a bettin' man
TTITLE2=Honkytonk flashback
TTITLE3=Remember I do
TTITLE4=Cryin' on your shoulder
TTITLE5=Southern Belle
TTITLE6=If the good lord's willin'
TTITLE7=Blue jeans and a pickup truck
TTITLE8=Somewhere southwest of nowhere
TTITLE9=Bystander salvation
EXTD=
EXTT0=
EXTT1=
EXTT2=
EXTT3=
EXTT4=
EXTT5=
EXTT6=
EXTT7=
EXTT8=
EXTT9=
PLAYORDER=
